<?xml version="1.0" encoding="utf-8"?>
<!-- Generator: Adobe Illustrator 24.0.1, SVG Export Plug-In . SVG Version: 6.00 Build 0)  -->
<svg version="1.1" id="Layer_1" xmlns="http://www.w3.org/2000/svg" xmlns:xlink="http://www.w3.org/1999/xlink" x="0px" y="0px"
	 viewBox="0 0 579 197" style="enable-background:new 0 0 579 197;" xml:space="preserve">
<style type="text/css">
	.st0{fill:#242F64;}
	.st1{fill:#E42A37;}
	.st2{fill:#FFCC29;}
	.st3{fill:#0F994C;}
</style>
<title>phdc-logo</title>
<g>
	<g>
		<path class="st0" d="M278.1,63.1c0,4.8-3.6,7.8-9.3,7.8h-4.9v6.3h-4.1V55.3h9C274.6,55.3,278.1,58.2,278.1,63.1z M274,63.1
			c0-2.8-1.8-4.3-5.4-4.3h-4.8v8.7h4.8C272.2,67.4,274,65.8,274,63.1z"/>
		<path class="st0" d="M297.7,70.1h-13.1c0.5,2.4,2.5,4,5.4,4c1.9,0,3.3-0.6,4.5-1.8l2.1,2.4c-1.5,1.8-3.8,2.7-6.7,2.7
			c-5.6,0-9.2-3.6-9.2-8.6s3.7-8.5,8.6-8.5c4.9,0,8.4,3.4,8.4,8.6C297.8,69.3,297.7,69.7,297.7,70.1z M284.6,67.5h9.5
			c-0.3-2.4-2.2-4.1-4.7-4.1C286.8,63.4,285,65.1,284.6,67.5z"/>
		<path class="st0" d="M311.9,76.3c-0.9,0.8-2.3,1.1-3.8,1.1c-3.7,0-5.8-1.9-5.8-5.6v-8h-2.8v-3.1h2.8v-3.8h3.9v3.8h4.5v3.1h-4.5
			v7.9c0,1.6,0.8,2.5,2.3,2.5c0.8,0,1.6-0.2,2.2-0.7L311.9,76.3z"/>
		<path class="st0" d="M325.1,60.3V64c-0.3-0.1-0.6-0.1-0.9-0.1c-3,0-4.8,1.8-4.8,5.2v8.1h-3.9V60.5h3.7v2.4
			C320.3,61.2,322.3,60.3,325.1,60.3z"/>
		<path class="st0" d="M327.2,68.9c0-5,3.8-8.5,8.9-8.5c5.2,0,8.9,3.5,8.9,8.5s-3.7,8.6-8.9,8.6C330.9,77.4,327.2,73.9,327.2,68.9z
			 M341,68.9c0-3.2-2.1-5.2-5-5.2c-2.8,0-4.9,2-4.9,5.2c0,3.2,2.1,5.2,4.9,5.2C338.9,74.1,341,72,341,68.9z"/>
		<path class="st0" d="M349.1,54h3.9v23.2h-3.9V54z"/>
		<path class="st0" d="M374,70.1h-13.1c0.5,2.4,2.5,4,5.4,4c1.9,0,3.3-0.6,4.5-1.8l2.1,2.4c-1.5,1.8-3.8,2.7-6.7,2.7
			c-5.6,0-9.2-3.6-9.2-8.6s3.7-8.5,8.6-8.5c4.9,0,8.4,3.4,8.4,8.6C374.1,69.3,374.1,69.7,374,70.1z M360.9,67.5h9.5
			c-0.3-2.4-2.2-4.1-4.7-4.1C363.1,63.4,361.3,65.1,360.9,67.5z"/>
		<path class="st0" d="M394.4,60.5v16.7h-3.7v-2.1c-1.3,1.5-3.2,2.3-5.4,2.3c-4.3,0-7.2-2.3-7.2-7.4v-9.5h3.9v9c0,3,1.4,4.5,3.9,4.5
			c2.7,0,4.6-1.7,4.6-5v-8.4H394.4z"/>
		<path class="st0" d="M427.7,67.6v9.6h-3.9v-9.1c0-3-1.4-4.4-3.8-4.4c-2.6,0-4.3,1.7-4.3,5v8.5h-3.9v-9.1c0-3-1.4-4.4-3.8-4.4
			c-2.6,0-4.3,1.7-4.3,5v8.5h-3.9V60.5h3.7v2.1c1.3-1.5,3.2-2.3,5.5-2.3c2.4,0,4.5,0.9,5.6,2.8c1.3-1.7,3.6-2.8,6.3-2.8
			C424.9,60.3,427.7,62.6,427.7,67.6z"/>
		<path class="st0" d="M279.3,87.6v21.9h-4.1v-9.4h-11.3v9.4h-4.1V87.6h4.1v9h11.3v-9H279.3z"/>
		<path class="st0" d="M301.3,92.8v16.7h-3.7v-2.1c-1.3,1.5-3.2,2.3-5.4,2.3c-4.3,0-7.2-2.3-7.2-7.4v-9.5h3.9v9c0,3,1.4,4.5,3.9,4.5
			c2.7,0,4.6-1.7,4.6-5v-8.4H301.3z"/>
		<path class="st0" d="M324.4,101.2c0,5.2-3.6,8.6-8.5,8.6c-2.3,0-4.2-0.8-5.5-2.4v2.2h-3.7V86.3h3.9v8.5c1.3-1.5,3.2-2.2,5.3-2.2
			C320.8,92.6,324.4,96,324.4,101.2z M320.5,101.2c0-3.2-2.1-5.2-4.9-5.2c-2.8,0-5,2-5,5.2c0,3.2,2.2,5.2,5,5.2
			C318.3,106.4,320.5,104.4,320.5,101.2z"/>
		<path class="st0" d="M337.8,87.6h9.6c7.1,0,11.9,4.4,11.9,10.9c0,6.6-4.8,10.9-11.9,10.9h-9.6V87.6z M347.2,106.1c4.9,0,8-3,8-7.5
			c0-4.5-3.2-7.5-8-7.5h-5.3v15H347.2z"/>
		<path class="st0" d="M379.2,102.4h-13.1c0.5,2.4,2.5,4,5.4,4c1.9,0,3.3-0.6,4.5-1.8l2.1,2.4c-1.5,1.8-3.8,2.7-6.7,2.7
			c-5.6,0-9.2-3.6-9.2-8.6s3.7-8.5,8.6-8.5c4.9,0,8.4,3.4,8.4,8.6C379.3,101.6,379.2,102.1,379.2,102.4z M366.1,99.8h9.5
			c-0.3-2.4-2.2-4.1-4.7-4.1C368.3,95.8,366.4,97.4,366.1,99.8z"/>
		<path class="st0" d="M398.7,92.8l-7.2,16.7h-4l-7.2-16.7h4.1l5.2,12.4l5.3-12.4H398.7z"/>
		<path class="st0" d="M416.6,102.4h-13.1c0.5,2.4,2.5,4,5.4,4c1.9,0,3.3-0.6,4.5-1.8l2.1,2.4c-1.5,1.8-3.8,2.7-6.7,2.7
			c-5.6,0-9.2-3.6-9.2-8.6s3.7-8.5,8.6-8.5c4.9,0,8.4,3.4,8.4,8.6C416.7,101.6,416.6,102.1,416.6,102.4z M403.5,99.8h9.5
			c-0.3-2.4-2.2-4.1-4.7-4.1C405.7,95.8,403.8,97.4,403.5,99.8z"/>
		<path class="st0" d="M420.7,86.3h3.9v23.2h-3.9V86.3z"/>
		<path class="st0" d="M428.7,101.2c0-5,3.8-8.5,8.9-8.5c5.2,0,8.9,3.5,8.9,8.5s-3.7,8.6-8.9,8.6
			C432.5,109.8,428.7,106.2,428.7,101.2z M442.6,101.2c0-3.2-2.1-5.2-5-5.2c-2.8,0-4.9,2-4.9,5.2c0,3.2,2.1,5.2,4.9,5.2
			C440.4,106.4,442.6,104.4,442.6,101.2z"/>
		<path class="st0" d="M468.3,101.2c0,5.2-3.6,8.6-8.5,8.6c-2.1,0-4-0.7-5.3-2.3v8.1h-3.9V92.8h3.7V95c1.3-1.6,3.3-2.4,5.5-2.4
			C464.7,92.6,468.3,96,468.3,101.2z M464.3,101.2c0-3.2-2.1-5.2-4.9-5.2c-2.8,0-5,2-5,5.2c0,3.2,2.2,5.2,5,5.2
			C462.2,106.4,464.3,104.4,464.3,101.2z"/>
		<path class="st0" d="M500.3,100v9.6h-3.9v-9.1c0-3-1.4-4.4-3.8-4.4c-2.6,0-4.3,1.7-4.3,5v8.5h-3.9v-9.1c0-3-1.4-4.4-3.8-4.4
			c-2.6,0-4.3,1.7-4.3,5v8.5h-3.9V92.8h3.7V95c1.3-1.5,3.2-2.3,5.5-2.3c2.4,0,4.5,0.9,5.6,2.8c1.3-1.7,3.6-2.8,6.3-2.8
			C497.5,92.6,500.3,94.9,500.3,100z"/>
		<path class="st0" d="M521.4,102.4h-13.1c0.5,2.4,2.5,4,5.4,4c1.9,0,3.3-0.6,4.5-1.8l2.1,2.4c-1.5,1.8-3.8,2.7-6.7,2.7
			c-5.6,0-9.2-3.6-9.2-8.6s3.7-8.5,8.6-8.5c4.9,0,8.4,3.4,8.4,8.6C521.5,101.6,521.4,102.1,521.4,102.4z M508.3,99.8h9.5
			c-0.3-2.4-2.2-4.1-4.7-4.1C510.5,95.8,508.6,97.4,508.3,99.8z"/>
		<path class="st0" d="M542,100v9.6h-3.9v-9.1c0-3-1.5-4.4-4-4.4c-2.8,0-4.7,1.7-4.7,5v8.4h-3.9V92.8h3.7V95
			c1.3-1.5,3.3-2.3,5.8-2.3C539,92.6,542,94.9,542,100z"/>
		<path class="st0" d="M557.3,108.6c-0.9,0.8-2.3,1.1-3.8,1.1c-3.7,0-5.8-1.9-5.8-5.6v-8h-2.8V93h2.8v-3.8h3.9V93h4.5v3.1h-4.5v7.9
			c0,1.6,0.8,2.5,2.3,2.5c0.8,0,1.6-0.2,2.2-0.7L557.3,108.6z"/>
		<path class="st0" d="M258.2,130.9c0-6.5,5-11.3,11.7-11.3c3.6,0,6.6,1.3,8.7,3.7l-2.6,2.5c-1.6-1.7-3.6-2.6-5.8-2.6
			c-4.5,0-7.8,3.2-7.8,7.7c0,4.5,3.3,7.7,7.8,7.7c2.3,0,4.3-0.8,5.8-2.6l2.6,2.5c-2,2.4-5.1,3.7-8.7,3.7
			C263.2,142.2,258.2,137.4,258.2,130.9z"/>
		<path class="st0" d="M280.5,133.5c0-5,3.8-8.5,8.9-8.5c5.2,0,8.9,3.5,8.9,8.5s-3.7,8.6-8.9,8.6
			C284.2,142.1,280.5,138.5,280.5,133.5z M294.3,133.5c0-3.2-2.1-5.2-5-5.2c-2.8,0-4.9,2-4.9,5.2c0,3.2,2.1,5.2,4.9,5.2
			C292.2,138.7,294.3,136.7,294.3,133.5z"/>
		<path class="st0" d="M312,125v3.7c-0.3-0.1-0.6-0.1-0.9-0.1c-3,0-4.8,1.8-4.8,5.2v8.1h-3.9v-16.7h3.7v2.4
			C307.2,125.8,309.2,125,312,125z"/>
		<path class="st0" d="M333.4,133.5c0,5.2-3.6,8.6-8.5,8.6c-2.1,0-4-0.7-5.3-2.3v8.1h-3.9v-22.8h3.7v2.2c1.3-1.6,3.3-2.4,5.5-2.4
			C329.8,125,333.4,128.3,333.4,133.5z M329.4,133.5c0-3.2-2.1-5.2-4.9-5.2c-2.8,0-5,2-5,5.2c0,3.2,2.2,5.2,5,5.2
			C327.3,138.7,329.4,136.7,329.4,133.5z"/>
		<path class="st0" d="M336,133.5c0-5,3.8-8.5,8.9-8.5c5.2,0,8.9,3.5,8.9,8.5s-3.7,8.6-8.9,8.6C339.8,142.1,336,138.5,336,133.5z
			 M349.9,133.5c0-3.2-2.1-5.2-5-5.2c-2.8,0-4.9,2-4.9,5.2c0,3.2,2.1,5.2,4.9,5.2C347.8,138.7,349.9,136.7,349.9,133.5z"/>
		<path class="st0" d="M367.6,125v3.7c-0.3-0.1-0.6-0.1-0.9-0.1c-3,0-4.8,1.8-4.8,5.2v8.1h-3.9v-16.7h3.7v2.4
			C362.8,125.8,364.8,125,367.6,125z"/>
		<path class="st0" d="M385.1,132.1v9.8h-3.7v-2c-0.9,1.4-2.8,2.3-5.3,2.3c-3.8,0-6.2-2.1-6.2-5c0-2.8,1.9-5,6.9-5h4.3v-0.3
			c0-2.3-1.4-3.6-4.2-3.6c-1.9,0-3.8,0.6-5.1,1.7l-1.5-2.8c1.8-1.4,4.4-2.1,7.1-2.1C382.3,125,385.1,127.3,385.1,132.1z
			 M381.2,136.6v-1.9h-4c-2.7,0-3.4,1-3.4,2.2c0,1.4,1.2,2.3,3.2,2.3C378.9,139.2,380.5,138.4,381.2,136.6z"/>
		<path class="st0" d="M400.5,141c-0.9,0.8-2.3,1.1-3.8,1.1c-3.7,0-5.8-1.9-5.8-5.6v-8h-2.8v-3.1h2.8v-3.8h3.9v3.8h4.5v3.1h-4.5v7.9
			c0,1.6,0.8,2.5,2.3,2.5c0.8,0,1.6-0.2,2.2-0.7L400.5,141z"/>
		<path class="st0" d="M403.5,120.1c0-1.3,1.1-2.3,2.5-2.3c1.4,0,2.5,1,2.5,2.3c0,1.4-1,2.4-2.5,2.4
			C404.5,122.4,403.5,121.4,403.5,120.1z M404,125.2h3.9v16.7H404V125.2z"/>
		<path class="st0" d="M412,133.5c0-5,3.8-8.5,8.9-8.5c5.2,0,8.9,3.5,8.9,8.5s-3.7,8.6-8.9,8.6C415.7,142.1,412,138.5,412,133.5z
			 M425.8,133.5c0-3.2-2.1-5.2-5-5.2c-2.8,0-4.9,2-4.9,5.2c0,3.2,2.1,5.2,4.9,5.2C423.7,138.7,425.8,136.7,425.8,133.5z"/>
		<path class="st0" d="M450.3,132.3v9.6h-3.9v-9.1c0-3-1.5-4.4-4-4.4c-2.8,0-4.7,1.7-4.7,5v8.4h-3.9v-16.7h3.7v2.2
			c1.3-1.5,3.3-2.3,5.8-2.3C447.3,125,450.3,127.3,450.3,132.3z"/>
	</g>
	<path class="st0" d="M166.3,170.9l-75.6,0c-8.6,0-15.6,7-15.6,15.6v0l106.9,0C181.9,177.9,174.9,170.9,166.3,170.9z"/>
	<path class="st0" d="M49.9,40.9H22.1v114.1h15.3v-41.3h12.7c12.2,0,18.3-6.5,18.3-19.4V60.5C68.4,47.5,62.2,40.9,49.9,40.9z
		 M53.1,93.3c0,4.5-2,6.7-6,6.7h-9.7V54.8h8.9c4.6,0,6.8,2.2,6.8,6.7V93.3z"/>
	<polygon class="st0" points="109.5,155.1 124.8,155.1 124.8,40.9 109.5,40.9 109.5,40.9 109.5,89.4 90.8,89.4 90.8,40.9 75.5,40.9 
		75.5,155.1 90.8,155.1 90.8,103.3 109.5,103.3 109.5,155.1 	"/>
	<path class="st0" d="M216.5,40.9h-9.9c-12.2,0-18.3,6.5-18.3,19.4v75.4c0,12.9,6.1,19.4,18.3,19.4h9.9c12.2,0,18.3-6.5,18.3-19.4
		v-7.3h-15.3v6.2c0,4.5-2,6.7-6,6.7h-3.8c-4,0-6-2.2-6-6.7V61.5c0-4.5,2-6.7,6-6.7h3c4.6,0,6.8,2.2,6.8,6.7v11.8h15.3V60.3
		C234.8,47.4,228.7,40.9,216.5,40.9z"/>
	<g>
		<path class="st0" d="M156.2,133.5c-1,0-2-0.2-2.9-0.5c-3.2-1.2-5.5-4.2-5.5-7.9c0-0.9-0.7-1.5-1.5-1.5c-0.8,0-1.4,0.7-1.4,1.6
			c0,0.5,0,1,0.1,1.5c0.7,5.5,5.5,9.8,11.1,9.9c1,0,1.6-0.5,1.7-1.2C157.8,134.2,157.1,133.5,156.2,133.5z"/>
		<path class="st0" d="M161.8,41l-1.4,0v0h-9v0l-17.5,0v114.1h29.7c12.2,0,18.3-5.5,18.3-16.5V62.9C181.9,48.7,175.2,41.5,161.8,41z
			 M167.9,137.5c-3.1,2.3-6.6,3.2-10.4,3.1c-3.4-0.1-6.5-0.9-9.2-2.9c-5.6-4.1-7.9-9.7-6.9-16.6c0.4-2.8,1.5-5.3,2.7-7.8
			c1.6-3.2,3.6-6.1,5.5-9.1c1.9-3,3.8-6,5.6-9c1.2-2,2.1-4.1,2.8-6.4c0,0,0,0,0.1-0.1c0.3,1.8,1,3.4,1.9,4.9
			c1.9,3.1,3.8,6.2,5.7,9.2c2.2,3.4,4.4,6.8,6.2,10.4c1.3,2.7,2.4,5.5,2.8,8.5C175.4,128.3,173.2,133.6,167.9,137.5z"/>
	</g>
	<g>
		<path class="st1" d="M20.7,10.4h71.4v15.3H36C27.5,25.7,20.7,18.9,20.7,10.4L20.7,10.4z"/>
		<path class="st2" d="M92.1,10.4h56.1c8.4,0,15.3,6.8,15.3,15.3v0H92.1V10.4z"/>
		<path class="st3" d="M178.7,10.4h56.1v0c0,8.4-6.8,15.3-15.3,15.3h-56.1v0C163.4,17.3,170.3,10.4,178.7,10.4z"/>
	</g>
</g>
</svg>
