<?xml version="1.0" encoding="utf-8"?>
<!-- Generator: Adobe Illustrator 24.0.1, SVG Export Plug-In . SVG Version: 6.00 Build 0)  -->
<svg version="1.1" id="Layer_1" xmlns="http://www.w3.org/2000/svg" xmlns:xlink="http://www.w3.org/1999/xlink" x="0px" y="0px"
	 viewBox="0 0 257 197" style="enable-background:new 0 0 257 197;" xml:space="preserve">
<style type="text/css">
	.st0{fill:#FFFFFF;}
</style>
<title>phdc-logo</title>
<g>
	<path class="st0" d="M166.6,171.5l-76.2,0c-8.7,0-15.8,7.1-15.8,15.8v0l107.8,0C182.4,178.6,175.3,171.5,166.6,171.5z"/>
	<path class="st0" d="M49.3,40.5H21.3v115.1h15.4v-41.7h12.8c12.3,0,18.4-6.5,18.4-19.6V60.2C67.9,47,61.7,40.5,49.3,40.5z
		 M52.5,93.2c0,4.5-2,6.7-6.1,6.7h-9.8V54.4h9c4.6,0,6.9,2.2,6.9,6.7V93.2z"/>
	<polygon class="st0" points="109.4,155.6 124.8,155.6 124.8,40.5 109.4,40.5 109.4,40.5 109.4,89.4 90.5,89.4 90.5,40.5 75.1,40.5 
		75.1,155.6 90.5,155.6 90.5,103.3 109.4,103.3 109.4,155.6 	"/>
	<path class="st0" d="M217.3,40.5h-9.9c-12.3,0-18.4,6.5-18.4,19.6v76c0,13,6.1,19.6,18.4,19.6h9.9c12.3,0,18.4-6.5,18.4-19.6v-7.4
		h-15.4v6.3c0,4.5-2,6.7-6.1,6.7h-3.8c-4.1,0-6.1-2.2-6.1-6.7V61.1c0-4.5,2-6.7,6.1-6.7h3c4.6,0,6.9,2.2,6.9,6.7V73h15.4V60
		C235.7,47,229.6,40.5,217.3,40.5z"/>
	<path class="st0" d="M156.5,133.8c-1,0-2-0.2-3-0.6c-3.2-1.2-5.5-4.3-5.5-8c0-0.9-0.7-1.5-1.5-1.5c-0.8,0-1.5,0.7-1.4,1.6
		c0,0.5,0,1,0.1,1.5c0.7,5.5,5.6,9.9,11.1,9.9c1,0,1.6-0.5,1.7-1.3C158.1,134.5,157.4,133.8,156.5,133.8z"/>
	<path class="st0" d="M162.1,40.5l-1.4,0v0h-9.1v0l-17.7,0v115.1h30c12.3,0,18.4-5.6,18.4-16.7V62.6C182.4,48.3,175.6,41,162.1,40.5
		z M168.2,137.9c-3.1,2.3-6.7,3.2-10.5,3.1c-3.4-0.1-6.6-0.9-9.3-2.9c-5.7-4.1-8-9.8-7-16.7c0.4-2.8,1.5-5.4,2.7-7.9
		c1.6-3.2,3.7-6.2,5.6-9.2c1.9-3,3.8-6,5.6-9.1c1.2-2,2.2-4.2,2.8-6.4c0,0,0,0,0.1-0.1c0.3,1.8,1,3.4,1.9,5c1.9,3.1,3.8,6.2,5.8,9.3
		c2.2,3.4,4.5,6.8,6.3,10.5c1.4,2.7,2.4,5.5,2.8,8.6C175.8,128.6,173.6,133.9,168.2,137.9z"/>
	<path class="st0" d="M36.6,25.1h56.2h71.5l0,0h56.2c8.4,0,15.3-6.9,15.3-15.4h-56.2c-8.4,0-15.3,6.9-15.3,15.4
		c0-8.5-6.8-15.4-15.3-15.4H92.8H21.3C21.3,18.2,28.1,25.1,36.6,25.1z"/>
</g>
</svg>
